<?xml version="1.0" encoding="UTF-8"?>
<svg id="Layer_1" xmlns="http://www.w3.org/2000/svg" version="1.1" viewBox="0 0 746.7 654">
  <!-- Generator: Adobe Illustrator 29.0.1, SVG Export Plug-In . SVG Version: 2.1.0 Build 192)  -->
  <defs>
    <style>
      .st0 {
        fill: none;
      }

      .st1 {
        fill: #f8dc30;
      }

      .st2 {
        fill: #fff;
      }

      .st3 {
        fill: #f8dc00;
      }

      .st4 {
        fill: #272525;
      }
    </style>
  </defs>
  <path class="st4" d="M103.4,211.6l-49.9-38.8-19.3-5.2,75.4,58.6c17.8,13.8,28.5,23.8,35,30.7,1.4-.7,2.3-1.3,3-1.9-1.6-4-9-16.1-44.2-43.4ZM549.6,14.6l-11.4,15.1-8.4,48.1c-8.5,48.7-3.9,66.5,1.4,72.8.3.3.6.7,1.2,1.2-1.8-11.1-1.6-29.3,3.7-59.4l13.5-77.8ZM720.5,224.4l-27.1,20.4c-34.1,25.7-51,45.5-50.2,58.9.2,4.3,2.3,8.9,6.2,13.9-.2-13.4,16.7-32.9,50.2-58.2l47-35.5-26.2.4ZM173.7,467.6c-5.7-8.7-24.5-13.1-56-13.1s-18.8.3-30.3,1l-36.4,2.2-22.2,16.3,64.9-3.9c11.5-.7,21.5-1,30.4-1,26.7,0,44.3,3.2,52.5,9.4-.2-5.6-1.4-8.9-2.7-10.9ZM284.1,507.5c-19.3,0-56.7,23-94.2,48l-36.4,24.1-11.5,26.4,54.1-35.9c37.5-24.9,74.9-48,94.2-48s7.1,0,11.8,7.3c-6.7-21.9-14.1-21.9-18-21.9ZM593.2,503.2c.8,1.9,1.6,3.8,2.4,5.8.1,0,.2,0,.3.2-.9-2-1.8-4-2.7-6ZM628.4,551.7l-46-20.2c-51.3-22.5-92.1-37.5-124.2-37.5s-66.4,16-111.5,94l-25.6,44.4,2.2,21.6,29.7-51.4c45-78,77.1-94,111.4-94s72.8,15,124.2,37.5l46.7,20.5-7-14.9ZM690.3,399.6l53.8-8.2-21.2-12.4-38.8,5.9c-56,8.5-84.9,19.6-93.7,35.9-7.9,14.7-3.2,40,14.6,79.5-12.6-31.2-15.2-52.1-8.3-64.9,8.8-16.4,37.6-27.4,93.7-35.9ZM676.4,132.9l-25.5,31c-22.1,26.9-24.5,37.5-24.7,40.2,1.1.8,3.9,2.2,10.4,3.6,3.4-6.3,9.5-15.7,20.5-29.1l45.7-55.6-26.5,10.1ZM131,357.5c-1-9.2-13.3-25.2-66.6-49.2l-37-16.6-21.1,2.3,64.4,28.9c35,15.7,52.3,28,60.4,37.2,0-1,0-1.8,0-2.6Z"/>
  <path class="st1" d="M607.5,505.8c-.8-1.8-1.7-3.6-2.5-5.4,2.5,6.2,5.4,12.9,8.7,20l14.6,31.2.7.3-21.6-46.2Z"/>
  <path class="st3" d="M649.5,317.6c-3.9-5-6-9.6-6.2-13.9-.8-13.4,16.1-33.2,50.2-58.9l27.1-20.4,20-15-58.9,1c-2.7,0-5.3,0-7.9,0-18.4,0-29.8-1.3-36.9-2.7-6.5-1.3-9.3-2.8-10.4-3.6.2-2.6,2.6-13.3,24.7-40.2l25.5-31,20.3-24.7-67.4,25.5c-24.7,9.4-60.1,21.8-81.8,21.8s-13.3-2.2-15.1-3.8c-.5-.5-.9-.9-1.2-1.2-5.3-6.3-9.9-24.1-1.4-72.8l8.4-48.1,5.2-29.7-47.7,62.9c-37.8,49.8-59,57.2-68.2,57.2s-23.9-17.4-32.3-35.9c-1.7-3.7-3.3-7.5-4.8-11.2l-16.2-39.2-6.2-15-14,57c-14.7,60-34.9,60-41.6,60-12.9,0-36.8-8.4-77.2-48.4L167.1,19.9l36.8,88.4c25.9,62.2,22.6,78.1,20,82-1.3,2-6.6,4-17.5,4-17.6,0-44.2-5.1-86.1-16.4l-92.2-24.9,25.5,19.8,49.9,38.8c35.2,27.3,42.7,39.4,44.2,43.4-.7.5-1.7,1.2-3,1.9-7.3,3.8-26.2,9.5-74.5,14.8L0,279.5l27.4,12.3,37,16.6c53.3,23.9,65.7,40,66.6,49.2,0,.8,0,1.7,0,2.6-.9,10-12.2,28.3-56.2,60.8l-52.3,38.5,28.5-1.7,36.4-2.2c11.5-.7,21.4-1,30.3-1,31.5,0,50.3,4.4,56,13.1,1.3,2,2.6,5.4,2.7,10.9.3,9.7-2.8,26-14.7,53.3l-25.9,59.6,17.8-11.8,36.4-24.1c37.5-24.9,75-48,94.2-48s11.3,0,18,21.9c3.3,10.8,6.5,26.9,8.9,50.9l6,59,4-7,25.6-44.4c45-78,77.1-94,111.5-94s72.8,15,124.2,37.5l46,20.2-14.6-31.2c-3.3-7.1-6.2-13.8-8.7-20-17.8-39.5-22.5-64.8-14.6-79.5,8.8-16.3,37.6-27.4,93.7-35.9l38.8-5.9,14.9-2.3-47-27.4c-20.2-11.8-34-22.4-41.4-31.8ZM687.2,358c-3.9.6-7.7,1.2-11.4,1.8-100.9,17.3-125.8,47.4-82.5,143.3.9,2,1.8,4,2.7,6-.1,0-.2-.1-.3-.2-134-58.8-189.1-63.4-262.1,59.8-1.2,2.1-2.5,4.2-3.7,6.4-2.5-24.7-5.9-44-10.7-58.5-17-50.9-51.5-41-127.7,8.2-5.1,3.3-10.5,6.8-16,10.5,13.9-31.9,19-55,15.8-71.3-5.4-27.5-34.3-36-84.7-35.2-5.4,0-11.1.3-17,.5-3.1.1-6.3.3-9.5.5,28-20.6,47.1-38.2,57.2-54.2,7.1-11.1,9.7-21.5,7.8-31.3-3.4-17.7-21.1-33.9-53.9-51.2-4.3-2.2-8.8-4.5-13.5-6.8-3.8-1.8-7.8-3.7-11.9-5.5,40.5-4.4,68.7-9.7,84-17.9,9.7-5.2,14.1-11.6,13.2-19.6-1.2-10.2-11.1-23.2-30-40.1-4.6-4.1-9.8-8.5-15.5-13.1-2.4-1.9-5-3.9-7.6-6,65,17.6,104.7,23.4,122.1,10.4,17.9-13.4,12.4-46.9-13.2-108.2,20.5,20.3,38.2,34.2,53.7,43h0c38.2,21.7,62.5,12.2,78.4-9.7,10.6-14.5,17.4-34.5,22.3-54.4,9.7,23.4,22.2,48.7,41.7,57.3,22.2,9.9,53.6-2,100-63.3,0,.5-.2,1-.3,1.6-1.6,9.4-2.8,18-3.6,25.9-2.9,28.9-.5,48.5,7.7,60.4,3.9,5.7,9.1,9.6,15.6,12,21.4,7.8,57.3-1.3,108.9-20.8-3,3.6-5.7,7.1-8.2,10.4-3.4,4.5-6.5,8.8-9.1,12.8-14.3,22-16.1,36.2-6.2,44.9,3.4,3,8.2,5.3,14.4,7.1,12.8,3.7,31.5,4.9,55.8,4.5-3.2,2.4-6.2,4.8-9.2,7.1-3.1,2.5-6.1,4.9-8.9,7.3-38,32.1-50.5,57.4-34,83,5.9,9.2,15.5,18.4,28.9,28,6.6,4.7,14.1,9.5,22.5,14.4-.7.1-1.4.2-2.1.3Z"/>
  <path class="st0" d="M607.5,505.8c-.8-1.8-1.7-3.6-2.5-5.4,2.5,6.2,5.4,12.9,8.7,20l14.6,31.2.7.3-21.6-46.2Z"/>
  <path class="st2" d="M666.7,343.3c6.6,4.7,14.1,9.5,22.5,14.4-.7.1-1.4.2-2.1.3-3.9.6-7.7,1.2-11.4,1.8-100.9,17.3-125.8,47.4-82.5,143.3.8,1.9,1.6,3.8,2.4,5.8-134-58.8-189.1-63.4-262.1,59.8-1.2,2.1-2.5,4.2-3.7,6.4-2.5-24.7-5.9-44-10.7-58.5-17-50.9-51.5-41-127.7,8.2-5.1,3.3-10.5,6.8-16,10.5,13.9-31.9,19-55,15.8-71.3-5.4-27.5-34.3-36-84.7-35.2-5.4,0-11.1.3-17,.5-3.1.1-6.3.3-9.5.5,28-20.6,47.1-38.2,57.2-54.2,7.1-11.1,9.7-21.5,7.8-31.3-3.4-17.7-21.1-33.9-53.9-51.2-4.3-2.2-8.8-4.5-13.5-6.8-3.8-1.8-7.8-3.7-11.9-5.5,40.5-4.4,68.7-9.7,84-17.9,9.7-5.2,14.1-11.6,13.2-19.6-1.2-10.2-11.1-23.2-30-40.1-4.6-4.1-9.8-8.5-15.5-13.1-2.4-1.9-5-3.9-7.6-6,65,17.6,104.7,23.4,122.1,10.4,17.9-13.4,12.4-46.9-13.2-108.2,20.5,20.3,38.2,34.2,53.7,43h0c38.2,21.7,62.5,12.2,78.4-9.7,10.6-14.5,17.4-34.5,22.3-54.4,9.7,23.4,22.2,48.7,41.7,57.3,22.2,9.9,53.6-2,100-63.3,0,.5-.2,1-.3,1.6-1.6,9.4-2.8,18-3.6,25.9-2.9,28.9-.5,48.5,7.7,60.4,3.9,5.7,9.1,9.6,15.6,12,21.4,7.8,57.3-1.3,108.9-20.8-3,3.6-5.7,7.1-8.2,10.4-3.4,4.5-6.5,8.8-9.1,12.8-14.3,22-16.1,36.2-6.2,44.9,3.4,3,8.2,5.3,14.4,7.1,12.8,3.7,31.5,4.9,55.8,4.5-3.2,2.4-6.2,4.8-9.2,7.1-3.1,2.5-6.1,4.9-8.9,7.3-38,32.1-50.5,57.4-34,83,5.9,9.2,15.5,18.4,28.9,28Z"/>
</svg>